{
  "accessors": [
    {
      "bufferView": 2,
      "componentType": 5126,
      "count": 422,
      "max": [
        5.6994838714599609,
        8.7942008972167969,
        3.1905949115753174
      ],
      "min": [
        -5.4212322235107422,
        3.0019609928131104,
        0.27786999940872192
      ],
      "type": "VEC3"
    },
    {
      "bufferView": 2,
      "byteOffset": 5064,
      "componentType": 5126,
      "count": 422,
      "max": [
        0.9999890923500061,
        0.99622654914855957,
        0.99996012449264526
      ],
      "min": [
        -0.9999890923500061,
        -0.9958803653717041,
        -0.99561560153961182
      ],
      "type": "VEC3"
    },
    {
      "bufferView": 1,
      "componentType": 5126,
      "count": 422,
      "max": [
        0.875,
        1
      ],
      "min": [
        0.125,
        -0
      ],
      "type": "VEC2"
    },
    {
      "bufferView": 0,
      "componentType": 5125,
      "count": 2040,
      "max": [
        421
      ],
      "min": [
        0
      ],
      "type": "SCALAR"
    },
    {
      "bufferView": 2,
      "byteOffset": 10128,
      "componentType": 5126,
      "count": 137,
      "max": [
        68.25830078125,
        68.25830078125,
        3.9122679233551025
      ],
      "min": [
        -68.25830078125,
        -68.25830078125,
        0.087843999266624451
      ],
      "type": "VEC3"
    },
    {
      "bufferView": 2,
      "byteOffset": 11772,
      "componentType": 5126,
      "count": 137,
      "max": [
        1,
        1,
        1
      ],
      "min": [
        -1,
        -1,
        0
      ],
      "type": "VEC3"
    },
    {
      "bufferView": 1,
      "byteOffset": 3376,
      "componentType": 5126,
      "count": 137,
      "max": [
        1,
        1
      ],
      "min": [
        0,
        0
      ],
      "type": "VEC2"
    },
    {
      "bufferView": 0,
      "byteOffset": 8160,
      "componentType": 5125,
      "count": 624,
      "max": [
        136
      ],
      "min": [
        0
      ],
      "type": "SCALAR"
    },
    {
      "bufferView": 2,
      "byteOffset": 13416,
      "componentType": 5126,
      "count": 768,
      "max": [
        6.4674057960510254,
        5.2121658325195312,
        3.9122679233551025
      ],
      "min": [
        -6.144474983215332,
        -7.3991971015930176,
        3.7464380264282227
      ],
      "type": "VEC3"
    },
    {
      "bufferView": 2,
      "byteOffset": 22632,
      "componentType": 5126,
      "count": 768,
      "max": [
        1,
        1,
        1
      ],
      "min": [
        -1,
        -1,
        -1
      ],
      "type": "VEC3"
    },
    {
      "bufferView": 1,
      "byteOffset": 4472,
      "componentType": 5126,
      "count": 768,
      "max": [
        0.98854702711105347,
        1.3158429861068726
      ],
      "min": [
        -0.22617299854755402,
        0
      ],
      "type": "VEC2"
    },
    {
      "bufferView": 0,
      "byteOffset": 10656,
      "componentType": 5125,
      "count": 1152,
      "max": [
        767
      ],
      "min": [
        0
      ],
      "type": "SCALAR"
    },
    {
      "bufferView": 2,
      "byteOffset": 31848,
      "componentType": 5126,
      "count": 470,
      "max": [
        6.5944609642028809,
        5.227910041809082,
        3.6362440586090088
      ],
      "min": [
        -6.2248091697692871,
        -7.5913610458374023,
        0.10636799782514572
      ],
      "type": "VEC3"
    },
    {
      "bufferView": 2,
      "byteOffset": 37488,
      "componentType": 5126,
      "count": 470,
      "max": [
        1,
        1,
        1
      ],
      "min": [
        -1,
        -1,
        -1
      ],
      "type": "VEC3"
    },
    {
      "bufferView": 1,
      "byteOffset": 10616,
      "componentType": 5126,
      "count": 470,
      "max": [
        0.875,
        1
      ],
      "min": [
        0.125,
        0
      ],
      "type": "VEC2"
    },
    {
      "bufferView": 0,
      "byteOffset": 15264,
      "componentType": 5125,
      "count": 2136,
      "max": [
        469
      ],
      "min": [
        0
      ],
      "type": "SCALAR"
    },
    {
      "bufferView": 2,
      "byteOffset": 43128,
      "componentType": 5126,
      "count": 414,
      "max": [
        0.52657002210617065,
        -7.2113728523254395,
        2.2185490131378174
      ],
      "min": [
        -0.13970400393009186,
        -8.6879148483276367,
        1.5346740484237671
      ],
      "type": "VEC3"
    },
    {
      "bufferView": 2,
      "byteOffset": 48096,
      "componentType": 5126,
      "count": 414,
      "max": [
        0.99999374151229858,
        0.99991434812545776,
        0.99984163045883179
      ],
      "min": [
        -0.99999397993087769,
        -0.99983662366867065,
        -0.99984163045883179
      ],
      "type": "VEC3"
    },
    {
      "bufferView": 1,
      "byteOffset": 14376,
      "componentType": 5126,
      "count": 414,
      "max": [
        1.0001009702682495,
        1
      ],
      "min": [
        -0.00010099999781232327,
        -0
      ],
      "type": "VEC2"
    },
    {
      "bufferView": 0,
      "byteOffset": 23808,
      "componentType": 5125,
      "count": 1674,
      "max": [
        413
      ],
      "min": [
        0
      ],
      "type": "SCALAR"
    },
    {
      "bufferView": 2,
      "byteOffset": 53064,
      "componentType": 5126,
      "count": 130,
      "max": [
        7.1066269874572754,
        5.7703299522399902,
        3.9064230918884277
      ],
      "min": [
        -6.7337698936462402,
        -8.0700674057006836,
        3.5213420391082764
      ],
      "type": "VEC3"
    },
    {
      "bufferView": 2,
      "byteOffset": 54624,
      "componentType": 5126,
      "count": 130,
      "max": [
        1,
        1,
        1
      ],
      "min": [
        -1,
        -1,
        -1
      ],
      "type": "VEC3"
    },
    {
      "bufferView": 1,
      "byteOffset": 17688,
      "componentType": 5126,
      "count": 130,
      "max": [
        0.89418697357177734,
        1.0451159477233887
      ],
      "min": [
        0.2082040011882782,
        0.075446002185344696
      ],
      "type": "VEC2"
    },
    {
      "bufferView": 0,
      "byteOffset": 30504,
      "componentType": 5125,
      "count": 276,
      "max": [
        129
      ],
      "min": [
        0
      ],
      "type": "SCALAR"
    },
    {
      "bufferView": 2,
      "byteOffset": 56184,
      "componentType": 5126,
      "count": 528,
      "max": [
        6.4668889045715332,
        5.2121658325195312,
        3.9122679233551025
      ],
      "min": [
        -6.144474983215332,
        -7.3991971015930176,
        3.7464380264282227
      ],
      "type": "VEC3"
    },
    {
      "bufferView": 2,
      "byteOffset": 62520,
      "componentType": 5126,
      "count": 528,
      "max": [
        1,
        1,
        1
      ],
      "min": [
        -1,
        -1,
        -1
      ],
      "type": "VEC3"
    },
    {
      "bufferView": 1,
      "byteOffset": 18728,
      "componentType": 5126,
      "count": 528,
      "max": [
        0.94385099411010742,
        1
      ],
      "min": [
        0.125,
        0
      ],
      "type": "VEC2"
    },
    {
      "bufferView": 0,
      "byteOffset": 31608,
      "componentType": 5125,
      "count": 792,
      "max": [
        527
      ],
      "min": [
        0
      ],
      "type": "SCALAR"
    },
    {
      "bufferView": 2,
      "byteOffset": 68856,
      "componentType": 5126,
      "count": 240,
      "max": [
        6.4691519737243652,
        3.6357460021972656,
        3.9122679233551025
      ],
      "min": [
        -6.144474983215332,
        -7.3991971015930176,
        3.7464380264282227
      ],
      "type": "VEC3"
    },
    {
      "bufferView": 2,
      "byteOffset": 71736,
      "componentType": 5126,
      "count": 240,
      "max": [
        1,
        1,
        1
      ],
      "min": [
        -1,
        -1,
        -1
      ],
      "type": "VEC3"
    },
    {
      "bufferView": 1,
      "byteOffset": 22952,
      "componentType": 5126,
      "count": 240,
      "max": [
        0.875,
        1.109578013420105
      ],
      "min": [
        -0.096906997263431549,
        -0.036316998302936554
      ],
      "type": "VEC2"
    },
    {
      "bufferView": 0,
      "byteOffset": 34776,
      "componentType": 5125,
      "count": 360,
      "max": [
        239
      ],
      "min": [
        0
      ],
      "type": "SCALAR"
    },
    {
      "bufferView": 2,
      "byteOffset": 74616,
      "componentType": 5126,
      "count": 414,
      "max": [
        0.4709869921207428,
        9.8112077713012695,
        2.2946090698242188
      ],
      "min": [
        -0.1927340030670166,
        8.3117752075195312,
        1.5111709833145142
      ],
      "type": "VEC3"
    },
    {
      "bufferView": 2,
      "byteOffset": 79584,
      "componentType": 5126,
      "count": 414,
      "max": [
        0.99999886751174927,
        0.99839144945144653,
        0.99494850635528564
      ],
      "min": [
        -0.99999886751174927,
        -0.99839097261428833,
        -0.9995570182800293
      ],
      "type": "VEC3"
    },
    {
      "bufferView": 1,
      "byteOffset": 24872,
      "componentType": 5126,
      "count": 414,
      "max": [
        1.0001009702682495,
        1
      ],
      "min": [
        -0.00010099999781232327,
        -0
      ],
      "type": "VEC2"
    },
    {
      "bufferView": 0,
      "byteOffset": 36216,
      "componentType": 5125,
      "count": 1674,
      "max": [
        413
      ],
      "min": [
        0
      ],
      "type": "SCALAR"
    }
  ],
  "asset": {
    "extras": {
      "author": "stella90 (https://sketchfab.com/stella90)",
      "license": "CC-BY-4.0 (http://creativecommons.org/licenses/by/4.0/)",
      "source": "https://sketchfab.com/3d-models/marble-chessboard-0c7ecdfefa4348e5b07dfe2cbcb1e95a",
      "title": "Marble Chessboard"
    },
    "generator": "Sketchfab-8.86.0",
    "version": "2.0"
  },
  "bufferViews": [
    {
      "buffer": 0,
      "byteLength": 42912,
      "byteOffset": 0,
      "name": "floatBufferViews",
      "target": 34963
    },
    {
      "buffer": 0,
      "byteLength": 28184,
      "byteOffset": 42912,
      "byteStride": 8,
      "name": "floatBufferViews",
      "target": 34962
    },
    {
      "buffer": 0,
      "byteLength": 84552,
      "byteOffset": 71096,
      "byteStride": 12,
      "name": "floatBufferViews",
      "target": 34962
    }
  ],
  "buffers": [
    {
      "byteLength": 155648,
      "uri": "scene.bin"
    }
  ],
  "extensionsRequired": [
    "KHR_materials_pbrSpecularGlossiness"
  ],
  "extensionsUsed": [
    "KHR_materials_pbrSpecularGlossiness"
  ],
  "images": [
    {
      "uri": "textures/lambert10SG_diffuse.jpeg"
    },
    {
      "uri": "textures/lambert11SG_diffuse.jpeg"
    }
  ],
  "materials": [
    {
      "doubleSided": true,
      "emissiveFactor": [
        0,
        0,
        0
      ],
      "extensions": {
        "KHR_materials_pbrSpecularGlossiness": {
          "diffuseFactor": [
            1,
            1,
            1,
            1
          ],
          "glossinessFactor": 0,
          "specularFactor": [
            0,
            0,
            0
          ]
        }
      },
      "name": "initialShadingGroup"
    },
    {
      "doubleSided": true,
      "emissiveFactor": [
        0,
        0,
        0
      ],
      "extensions": {
        "KHR_materials_pbrSpecularGlossiness": {
          "diffuseFactor": [
            1,
            1,
            1,
            1
          ],
          "diffuseTexture": {
            "index": 0,
            "texCoord": 0
          },
          "glossinessFactor": 0,
          "specularFactor": [
            0,
            0,
            0
          ]
        }
      },
      "name": "lambert10SG"
    },
    {
      "doubleSided": true,
      "emissiveFactor": [
        0,
        0,
        0
      ],
      "extensions": {
        "KHR_materials_pbrSpecularGlossiness": {
          "diffuseFactor": [
            1,
            1,
            1,
            1
          ],
          "diffuseTexture": {
            "index": 1,
            "texCoord": 0
          },
          "glossinessFactor": 0,
          "specularFactor": [
            0,
            0,
            0
          ]
        }
      },
      "name": "lambert11SG"
    },
    {
      "doubleSided": true,
      "emissiveFactor": [
        0,
        0,
        0
      ],
      "extensions": {
        "KHR_materials_pbrSpecularGlossiness": {
          "diffuseFactor": [
            0,
            0,
            0,
            1
          ],
          "glossinessFactor": 0,
          "specularFactor": [
            0,
            0,
            0
          ]
        }
      },
      "name": "lambert12SG"
    },
    {
      "doubleSided": true,
      "emissiveFactor": [
        0,
        0,
        0
      ],
      "extensions": {
        "KHR_materials_pbrSpecularGlossiness": {
          "diffuseFactor": [
            1,
            1,
            1,
            1
          ],
          "diffuseTexture": {
            "index": 0,
            "texCoord": 0
          },
          "glossinessFactor": 0,
          "specularFactor": [
            0,
            0,
            0
          ]
        }
      },
      "name": "lambert2SG"
    },
    {
      "doubleSided": true,
      "emissiveFactor": [
        0,
        0,
        0
      ],
      "extensions": {
        "KHR_materials_pbrSpecularGlossiness": {
          "diffuseFactor": [
            1,
            1,
            1,
            1
          ],
          "diffuseTexture": {
            "index": 1,
            "texCoord": 0
          },
          "glossinessFactor": 0,
          "specularFactor": [
            0,
            0,
            0
          ]
        }
      },
      "name": "lambert5SG"
    },
    {
      "doubleSided": true,
      "emissiveFactor": [
        0,
        0,
        0
      ],
      "extensions": {
        "KHR_materials_pbrSpecularGlossiness": {
          "diffuseFactor": [
            1,
            1,
            1,
            1
          ],
          "diffuseTexture": {
            "index": 1,
            "texCoord": 0
          },
          "glossinessFactor": 0,
          "specularFactor": [
            0.36044026533875684,
            0.36044026533875684,
            0.36044026533875684
          ],
          "specularGlossinessTexture": {
            "index": 1,
            "texCoord": 0
          }
        }
      },
      "name": "lambert7SG"
    },
    {
      "doubleSided": true,
      "emissiveFactor": [
        0,
        0,
        0
      ],
      "extensions": {
        "KHR_materials_pbrSpecularGlossiness": {
          "diffuseFactor": [
            1,
            1,
            1,
            1
          ],
          "diffuseTexture": {
            "index": 1,
            "texCoord": 0
          },
          "glossinessFactor": 0,
          "specularFactor": [
            0,
            0,
            0
          ]
        }
      },
      "name": "pasted__lambert11SG"
    },
    {
      "doubleSided": true,
      "emissiveFactor": [
        0,
        0,
        0
      ],
      "extensions": {
        "KHR_materials_pbrSpecularGlossiness": {
          "diffuseFactor": [
            0,
            0,
            0,
            1
          ],
          "glossinessFactor": 0,
          "specularFactor": [
            0,
            0,
            0
          ]
        }
      },
      "name": "pasted__lambert12SG"
    }
  ],
  "meshes": [
    {
      "primitives": [
        {
          "attributes": {
            "NORMAL": 1,
            "POSITION": 0,
            "TEXCOORD_0": 2
          },
          "indices": 3,
          "material": 7,
          "mode": 4
        }
      ]
    },
    {
      "primitives": [
        {
          "attributes": {
            "NORMAL": 5,
            "POSITION": 4,
            "TEXCOORD_0": 6
          },
          "indices": 7,
          "material": 0,
          "mode": 4
        }
      ]
    },
    {
      "primitives": [
        {
          "attributes": {
            "NORMAL": 9,
            "POSITION": 8,
            "TEXCOORD_0": 10
          },
          "indices": 11,
          "material": 1,
          "mode": 4
        }
      ]
    },
    {
      "primitives": [
        {
          "attributes": {
            "NORMAL": 13,
            "POSITION": 12,
            "TEXCOORD_0": 14
          },
          "indices": 15,
          "material": 2,
          "mode": 4
        }
      ]
    },
    {
      "primitives": [
        {
          "attributes": {
            "NORMAL": 17,
            "POSITION": 16,
            "TEXCOORD_0": 18
          },
          "indices": 19,
          "material": 3,
          "mode": 4
        }
      ]
    },
    {
      "primitives": [
        {
          "attributes": {
            "NORMAL": 21,
            "POSITION": 20,
            "TEXCOORD_0": 22
          },
          "indices": 23,
          "material": 4,
          "mode": 4
        }
      ]
    },
    {
      "primitives": [
        {
          "attributes": {
            "NORMAL": 25,
            "POSITION": 24,
            "TEXCOORD_0": 26
          },
          "indices": 27,
          "material": 5,
          "mode": 4
        }
      ]
    },
    {
      "primitives": [
        {
          "attributes": {
            "NORMAL": 29,
            "POSITION": 28,
            "TEXCOORD_0": 30
          },
          "indices": 31,
          "material": 6,
          "mode": 4
        }
      ]
    },
    {
      "primitives": [
        {
          "attributes": {
            "NORMAL": 33,
            "POSITION": 32,
            "TEXCOORD_0": 34
          },
          "indices": 35,
          "material": 8,
          "mode": 4
        }
      ]
    }
  ],
  "nodes": [
    {
      "children": [
        1
      ],
      "name": "RootNode (gltf orientation matrix)",
      "rotation": [
        -0.70710678118654746,
        -0,
        -0,
        0.70710678118654757
      ]
    },
    {
      "children": [
        2
      ],
      "name": "RootNode (model correction matrix)"
    },
    {
      "children": [
        3,
        4,
        5,
        6,
        7,
        8,
        9,
        10,
        11
      ],
      "name": "chessboard.obj.cleaner.materialmerger.gles"
    },
    {
      "mesh": 0,
      "name": ""
    },
    {
      "mesh": 1,
      "name": ""
    },
    {
      "mesh": 2,
      "name": ""
    },
    {
      "mesh": 3,
      "name": ""
    },
    {
      "mesh": 4,
      "name": ""
    },
    {
      "mesh": 5,
      "name": ""
    },
    {
      "mesh": 6,
      "name": ""
    },
    {
      "mesh": 7,
      "name": ""
    },
    {
      "mesh": 8,
      "name": ""
    }
  ],
  "samplers": [
    {
      "magFilter": 9729,
      "minFilter": 9987,
      "wrapS": 10497,
      "wrapT": 10497
    }
  ],
  "scene": 0,
  "scenes": [
    {
      "name": "OSG_Scene",
      "nodes": [
        0
      ]
    }
  ],
  "textures": [
    {
      "sampler": 0,
      "source": 0
    },
    {
      "sampler": 0,
      "source": 1
    }
  ]
}

